<?xml version="1.0" encoding="UTF-8"?>
<svg width="64px" height="70px" viewBox="0 0 64 70" version="1.1" xmlns="http://www.w3.org/2000/svg" xmlns:xlink="http://www.w3.org/1999/xlink">
    <!-- Generator: Sketch 49 (51002) - http://www.bohemiancoding.com/sketch -->
    <title>Group 20</title>
    <desc>Created with Sketch.</desc>
    <defs>
        <polygon id="path-1" points="0.723897788 0.450140373 52.9346087 0.450140373 52.9346087 53.985376 0.723897788 53.985376"></polygon>
    </defs>
    <g id="Page-1" stroke="none" stroke-width="1" fill="none" fill-rule="evenodd">
        <g id="Arc-Icons-Top" transform="translate(-168.000000, -29.000000)">
            <g id="Group-20" transform="translate(157.529791, 24.322452)">
                <rect id="Rectangle-24" x="0" y="0" width="85.3999233" height="79.6048186"></rect>
                <g id="Page-1" transform="translate(10.674990, 4.975301)">
                    <g id="Group-3" transform="translate(10.674990, 0.000000)">
                        <mask id="mask-2" fill="white">
                            <use xlink:href="#path-1"></use>
                        </mask>
                        <g id="Clip-2"></g>
                        <path d="M12.7446042,12.7749564 C4.97854865,20.7379259 4.97854865,33.6975904 12.7446042,41.6605599 C20.5106597,49.6235294 33.1471796,49.6235294 40.9159039,41.6605599 C48.6846282,33.6975904 48.6819594,20.7379259 40.9159039,12.7749564 C33.1471796,4.80925049 20.5106597,4.80925049 12.7446042,12.7749564 Z M8.35985187,8.28176193 C18.5464615,-2.16040015 35.1167153,-2.16040015 45.2979875,8.28176193 C55.4819283,18.723924 55.4819283,35.7115923 45.3006562,46.1537544 C35.1167153,56.5959165 18.5464615,56.5959165 8.35985187,46.1537544 C-1.82142024,35.7115923 -1.82142024,18.7211876 8.35985187,8.28176193 Z" id="Fill-1" fill="#000000" mask="url(#mask-2)"></path>
                    </g>
                    <path d="M11.7949488,66.3807037 L26.687476,45.7543865 L24.0256045,42.7768971 L21.363733,39.8024093 L2.9265159,56.4607418 C2.55621523,56.7308769 2.20201458,57.043033 1.88001399,57.4092162 C-0.626223927,60.2066155 -0.626223927,64.7508885 1.87733065,67.5542908 C4.38356857,70.3546915 8.44345933,70.3546915 10.9496972,67.5512893 C11.2743812,67.1881076 11.5561317,66.7949109 11.7949488,66.3807037" id="Fill-4" fill="#000000"></path>
                </g>
            </g>
        </g>
    </g>
</svg>